<svg width="50" height="50" viewBox="0 0 50 50" fill="none" xmlns="http://www.w3.org/2000/svg">
<path fill-rule="evenodd" clip-rule="evenodd" d="M40.0012 41.77C35.8802 45.4673 30.5365 47.5084 25 47.5C12.5738 47.5 2.5 37.4262 2.5 25C2.5 19.0775 4.7875 13.69 8.52875 9.67125L12.2413 13.3837C12.477 13.6114 12.7928 13.7374 13.1205 13.7346C13.4482 13.7317 13.7618 13.6003 13.9935 13.3685C14.2253 13.1368 14.3567 12.8232 14.3596 12.4955C14.3624 12.1678 14.2364 11.852 14.0087 11.6163L10.3313 7.93875C14.4088 4.42275 19.6159 2.49213 25 2.5C37.4262 2.5 47.5 12.5738 47.5 25C47.5 30.7625 45.3325 36.0212 41.77 40.0012L34.5275 32.76C34.8405 31.8467 35.0001 30.8879 35 29.9225V27.5C35 27.2287 34.9116 26.9647 34.7484 26.748C34.5851 26.5313 34.3558 26.3736 34.095 26.2987C34.6903 25.0937 34.9999 23.7678 35 22.4237V20C35 19.7905 34.9474 19.5843 34.8469 19.4004C34.7464 19.2166 34.6013 19.0609 34.4249 18.9478C34.2486 18.8346 34.0466 18.7676 33.8376 18.753C33.6286 18.7383 33.4192 18.7764 33.2288 18.8637L33.1538 18.8975C33.5475 17.8861 33.7497 16.8103 33.75 15.725V13.75C33.7499 13.5475 33.7006 13.3481 33.6064 13.1689C33.5122 12.9897 33.3758 12.836 33.2091 12.7212C33.0423 12.6063 32.8502 12.5337 32.6491 12.5095C32.4481 12.4854 32.2442 12.5104 32.055 12.5825L29.385 13.5987C29.28 13.6384 29.1759 13.6801 29.0725 13.7238C29.0254 11.4762 28.2002 9.31459 26.7375 7.6075L25.95 6.68625C25.8327 6.54903 25.687 6.43885 25.523 6.36331C25.359 6.28777 25.1806 6.24865 25 6.24865C24.8194 6.24865 24.641 6.28777 24.477 6.36331C24.313 6.43885 24.1673 6.54903 24.05 6.68625L23.2625 7.60625C21.7988 9.31382 20.9731 11.4764 20.9262 13.725C20.8233 13.6813 20.7195 13.6397 20.615 13.6L17.945 12.5812C17.7557 12.5091 17.5517 12.4841 17.3506 12.5083C17.1494 12.5325 16.9572 12.6053 16.7904 12.7203C16.6236 12.8353 16.4873 12.9891 16.3932 13.1685C16.299 13.3478 16.2499 13.5474 16.25 13.75V15.725C16.25 16.8325 16.4587 17.905 16.845 18.8975L16.7712 18.8637C16.5808 18.7764 16.3714 18.7383 16.1624 18.753C15.9534 18.7676 15.7514 18.8346 15.5751 18.9478C15.3987 19.0609 15.2536 19.2166 15.1531 19.4004C15.0526 19.5843 15 19.7905 15 20V22.4237C15.0001 23.7678 15.3097 25.0937 15.905 26.2987C15.6442 26.3736 15.4149 26.5313 15.2516 26.748C15.0884 26.9647 15 27.2287 15 27.5V29.9237C15.0003 31.5978 15.4809 33.2366 16.3846 34.6457C17.2884 36.0549 18.5774 37.1752 20.0988 37.8737L23.75 39.5525V42.5H26.25V39.5512L29.9012 37.875C31.2593 37.2515 32.4349 36.2905 33.3162 35.0838L40.0012 41.77ZM50 25C50 38.8075 38.8075 50 25 50C11.1925 50 0 38.8075 0 25C0 11.1925 11.1925 0 25 0C38.8075 0 50 11.1925 50 25ZM25 9.4275C25.6729 10.2707 26.1481 11.254 26.3906 12.3052C26.6332 13.3563 26.6368 14.4485 26.4013 15.5012C25.8588 16.0287 25.3887 16.6225 25 17.2688C24.6111 16.6216 24.1401 16.0275 23.5987 15.5012C23.3632 14.4485 23.3668 13.3563 23.6094 12.3052C23.8519 11.254 24.3271 10.2707 25 9.4275ZM23.75 21.9362V21.7762C23.7501 20.5094 23.3653 19.2724 22.6465 18.2293C21.9277 17.1861 20.9088 16.386 19.725 15.935L18.75 15.5638V15.7238C18.7499 16.9906 19.1347 18.2276 19.8535 19.2707C20.5723 20.3139 21.5912 21.114 22.775 21.565L23.75 21.9362ZM26.25 21.9362L27.225 21.565C28.4088 21.114 29.4277 20.3139 30.1465 19.2707C30.8653 18.2276 31.2501 16.9906 31.25 15.7238V15.5638L30.275 15.935C29.0912 16.386 28.0723 17.1861 27.3535 18.2293C26.6347 19.2724 26.2499 20.5094 26.25 21.7762V21.9362ZM26.25 27.6338C26.25 25.9188 27.25 24.36 28.8075 23.645L32.5 21.95V22.4237C32.4999 23.6194 32.1567 24.79 31.5113 25.7966C30.8659 26.8031 29.9453 27.6034 28.8587 28.1025L26.25 29.3V27.6338ZM20.1087 23.1463C21.1957 23.6455 22.1166 24.4462 22.762 25.4532C23.4074 26.4603 23.7503 27.6314 23.75 28.8275V29.3025L21.1413 28.1037C20.0547 27.6047 19.1341 26.8044 18.4887 25.7978C17.8433 24.7913 17.5001 23.6207 17.5 22.425V21.95L20.1087 23.1463ZM23.75 36.8V36.3275C23.7501 35.1316 23.4071 33.9608 22.7617 32.954C22.1162 31.9472 21.1955 31.1467 20.1087 30.6475L17.5 29.45V29.9237C17.5001 31.1194 17.8433 32.29 18.4887 33.2966C19.1341 34.3031 20.0547 35.1034 21.1413 35.6025L23.75 36.8ZM26.25 36.8L28.8587 35.6025C29.9451 35.1035 30.8656 34.3034 31.511 33.2971C32.1564 32.2908 32.4996 31.1205 32.5 29.925V29.45L28.8075 31.1462C28.0443 31.4965 27.3977 32.0584 26.9443 32.7652C26.491 33.472 26.25 34.294 26.25 35.1337V36.8Z" fill="black"/>
</svg>
