<?xml version="1.0" standalone="no"?>
<!DOCTYPE svg PUBLIC "-//W3C//DTD SVG 20010904//EN"
 "http://www.w3.org/TR/2001/REC-SVG-20010904/DTD/svg10.dtd">
<svg version="1.0" xmlns="http://www.w3.org/2000/svg"
 width="291.000000pt" height="229.000000pt" viewBox="0 0 291.000000 229.000000"
 preserveAspectRatio="xMidYMid meet">

<g transform="translate(0.000000,229.000000) scale(0.100000,-0.100000)"
fill="#000000" stroke="none">
<path d="M203 2280 c-71 -15 -140 -67 -176 -135 -20 -36 -22 -58 -25 -232 l-4
-193 66 0 66 0 0 179 c0 166 1 180 21 205 40 51 64 56 249 56 l171 0 -3 63 -3
62 -160 2 c-88 0 -179 -3 -202 -7z"/>
<path d="M2325 2280 c-3 -5 -4 -34 -3 -64 l3 -56 168 0 c182 0 206 -6 246 -56
20 -25 21 -39 21 -205 l0 -179 66 0 66 0 -4 193 c-3 216 -10 242 -84 307 -67
59 -91 64 -291 66 -101 2 -185 -1 -188 -6z"/>
<path d="M380 1625 l0 -285 60 0 60 0 0 285 0 285 -60 0 -60 0 0 -285z"/>
<path d="M630 1625 l0 -285 125 0 125 0 0 285 0 285 -125 0 -125 0 0 -285z"/>
<path d="M1010 1625 l0 -285 60 0 60 0 0 285 0 285 -60 0 -60 0 0 -285z"/>
<path d="M1260 1625 l0 -285 60 0 60 0 0 285 0 285 -60 0 -60 0 0 -285z"/>
<path d="M1510 1625 l0 -285 125 0 125 0 0 285 0 285 -125 0 -125 0 0 -285z"/>
<path d="M1887 1903 c-9 -8 -9 -510 -1 -540 6 -21 13 -23 65 -23 l59 0 0 285
0 285 -58 0 c-32 0 -62 -3 -65 -7z"/>
<path d="M2140 1625 l0 -285 60 0 60 0 0 285 0 285 -60 0 -60 0 0 -285z"/>
<path d="M2390 1625 l0 -285 60 0 60 0 0 285 0 285 -60 0 -60 0 0 -285z"/>
<path d="M160 1207 c-19 -9 -26 -22 -28 -49 -6 -73 -107 -68 1313 -68 1411 0
1315 -5 1315 65 0 70 95 65 -1310 65 -996 0 -1270 -3 -1290 -13z"/>
<path d="M380 685 l0 -285 60 0 60 0 0 285 0 285 -60 0 -60 0 0 -285z"/>
<path d="M630 685 l0 -285 125 0 125 0 0 285 0 285 -125 0 -125 0 0 -285z"/>
<path d="M1010 685 l0 -285 60 0 60 0 0 285 0 285 -60 0 -60 0 0 -285z"/>
<path d="M1260 685 l0 -285 60 0 60 0 0 285 0 285 -60 0 -60 0 0 -285z"/>
<path d="M1510 685 l0 -285 125 0 125 0 0 285 0 285 -125 0 -125 0 0 -285z"/>
<path d="M1885 948 c-3 -13 -5 -140 -3 -283 l3 -260 63 -3 62 -3 0 286 0 285
-60 0 c-53 0 -60 -2 -65 -22z"/>
<path d="M2140 685 l0 -285 60 0 60 0 0 285 0 285 -60 0 -60 0 0 -285z"/>
<path d="M2390 685 l0 -285 60 0 60 0 0 285 0 285 -60 0 -60 0 0 -285z"/>
<path d="M2 398 c3 -218 10 -241 87 -311 63 -56 118 -68 312 -65 l164 3 0 60
0 60 -180 5 c-99 3 -188 9 -197 14 -10 4 -27 23 -38 41 -18 29 -20 49 -20 209
l0 176 -66 0 -66 0 4 -192z"/>
<path d="M2760 414 c0 -263 -1 -264 -265 -264 l-176 0 3 -62 3 -63 180 0 c202
0 245 10 304 67 69 68 76 92 79 306 l4 192 -66 0 -66 0 0 -176z"/>
</g>
</svg>
