<svg width="18" height="18" viewBox="0 0 18 18" fill="none" xmlns="http://www.w3.org/2000/svg">
<path fill-rule="evenodd" clip-rule="evenodd" d="M11.587 4.58489C11.6606 4.55862 11.7393 4.55392 11.815 4.57129C11.8908 4.58866 11.9609 4.62746 12.0182 4.68372L14.4182 7.03669C14.4739 7.09131 14.5156 7.16053 14.5391 7.23763C14.5627 7.31473 14.5673 7.39709 14.5526 7.4767L13.8981 11.0062C13.8821 11.0923 13.8441 11.1719 13.7883 11.2359C13.7325 11.3 13.6613 11.3459 13.5826 11.3685L10.3098 12.3097C10.2438 12.3287 10.1746 12.3307 10.1077 12.3156C10.0409 12.3005 9.97824 12.2686 9.92488 12.2227L8.83395 11.2815C8.74356 11.2035 8.68561 11.0899 8.67284 10.9658C8.66652 10.9044 8.67148 10.8422 8.68744 10.7828C8.70341 10.7235 8.73006 10.6681 8.76587 10.6198C8.80169 10.5715 8.84597 10.5314 8.89619 10.5015C8.9464 10.4717 9.00157 10.4529 9.05855 10.4461C9.17361 10.4323 9.28903 10.4684 9.37942 10.5464L9.91877 11.0123L10.3726 8.72707L8.65416 7.04234L8.64762 7.06258C8.63047 7.12247 8.60241 7.17806 8.56507 7.22609C8.52773 7.27412 8.48187 7.31363 8.43019 7.34229C8.3785 7.37095 8.32202 7.38818 8.26407 7.39298C8.20612 7.39778 8.14787 7.39005 8.09273 7.37024C8.03759 7.35043 7.98667 7.31894 7.94297 7.27762C7.89927 7.2363 7.86366 7.18598 7.83824 7.12961C7.81282 7.07325 7.79809 7.01198 7.79493 6.94939C7.79177 6.88681 7.80023 6.82417 7.81981 6.76516L8.038 6.05927C8.05942 5.98988 8.09553 5.92684 8.14348 5.87513C8.19143 5.82342 8.24989 5.78448 8.31423 5.76138L11.587 4.58489ZM9.29694 6.40045L10.9656 8.03671L12.2595 7.63764C12.3708 7.60332 12.4902 7.6181 12.5915 7.67873C12.6927 7.73936 12.7675 7.84088 12.7993 7.96094C12.8311 8.08101 12.8174 8.20979 12.7612 8.31896C12.705 8.42813 12.6108 8.50875 12.4995 8.54307L11.224 8.93602L10.7736 11.2024L13.0956 10.5346L13.6485 7.55341L11.6202 5.56514L9.29694 6.40045ZM5.07589 6.22445C5.00168 6.20266 4.92344 6.20241 4.8491 6.22373C4.77477 6.24506 4.70698 6.28719 4.65261 6.34586L2.68893 8.46354C2.63452 8.52217 2.59545 8.59528 2.57568 8.67544C2.55591 8.7556 2.55614 8.83998 2.57634 8.92002L3.2309 11.5083C3.25088 11.5874 3.28964 11.6594 3.34337 11.7174C3.3971 11.7753 3.46393 11.8171 3.53724 11.8386L5.9373 12.5445C6.00732 12.5651 6.08097 12.5664 6.15161 12.5485C6.22224 12.5306 6.28761 12.494 6.34181 12.442L8.3055 10.5596C8.36509 10.5025 8.40904 10.4289 8.43258 10.3467C8.45612 10.2646 8.45835 10.1771 8.43903 10.0937L7.78447 7.27011C7.76565 7.18903 7.72716 7.11482 7.67293 7.05511C7.61871 6.99539 7.55072 6.95233 7.47595 6.93034L5.07589 6.22445ZM3.8379 8.55578L5.09029 7.20423L6.52073 7.62494L5.26834 8.97649L3.8379 8.55578ZM5.88537 9.64191L7.12467 8.30495L7.52832 10.0457L6.28814 11.2349L5.88537 9.64191ZM5.04229 9.88521L5.43023 11.4193L4.00765 11.0015L3.61928 9.46732L5.04229 9.88521Z" fill="black"/>
<path fill-rule="evenodd" clip-rule="evenodd" d="M8.31304 17.2074C12.9043 17.5284 16.8863 14.0669 17.2074 9.47564C17.5284 4.88435 14.0669 0.902358 9.47565 0.581304C4.88436 0.26025 0.902363 3.72175 0.581309 8.31303C0.260255 12.9043 3.72175 16.8863 8.31304 17.2074ZM14.0861 14.3072C15.4323 13.0198 16.249 11.2759 16.3761 9.41751C16.665 5.28552 13.5495 1.70154 9.41752 1.41261C7.55954 1.2798 5.71896 1.84587 4.25673 2.99981L5.74705 4.71378C5.81953 4.79722 5.8559 4.90604 5.84815 5.0163C5.8404 5.12655 5.78917 5.22922 5.70573 5.3017C5.62228 5.37419 5.51346 5.41055 5.40321 5.4028C5.29295 5.39506 5.19029 5.34382 5.1178 5.26038L3.63179 3.55047C2.32703 4.83163 1.53744 6.54683 1.41261 8.37116C1.12368 12.5032 4.23918 16.0871 8.37117 16.3761C10.2699 16.5088 12.053 15.9226 13.4534 14.8498L11.9457 13.1154C11.9098 13.0741 11.8824 13.0261 11.865 12.9742C11.8477 12.9223 11.8407 12.8675 11.8446 12.8129C11.8484 12.7583 11.8629 12.705 11.8874 12.656C11.9118 12.607 11.9457 12.5634 11.987 12.5275C12.0283 12.4916 12.0763 12.4642 12.1282 12.4468C12.1801 12.4295 12.2349 12.4225 12.2895 12.4264C12.3441 12.4302 12.3974 12.4447 12.4464 12.4692C12.4953 12.4936 12.539 12.5275 12.5749 12.5688L14.0861 14.3072Z" fill="black"/>
</svg>
